<svg id="Capa_1" data-name="Capa 1" xmlns="http://www.w3.org/2000/svg" viewBox="0 0 488.98 230.8"><defs><style>.cls-1{fill:#f18a7b;}.cls-2{fill:#a9d9c9;}</style></defs><title>foodmaplogo</title><path class="cls-1" d="M194.68,172.54a4.5,4.5,0,0,0-5.2-3.67l-27.37,4.71a4.5,4.5,0,1,0,1.53,8.87L191,177.74A4.5,4.5,0,0,0,194.68,172.54Z"/><path class="cls-1" d="M68.94,85.94a4.59,4.59,0,0,0-3.86-1L41.91,88.84c-8.2,1.39-14.94,8.62-15.35,16.47l-5.08,97a4.31,4.31,0,0,0,1.4,3.47,4.46,4.46,0,0,0,3,1.1,5.18,5.18,0,0,0,.87-.07,6.36,6.36,0,0,0,5.13-5.59l2.62-50,20.14-3.41a6.36,6.36,0,0,0,5.13-5.59,4.3,4.3,0,0,0-1.4-3.47,4.59,4.59,0,0,0-3.86-1L35,141.05l1.93-36.84c.12-2.34,2.55-4.86,5.09-5.29L65.21,95a6.36,6.36,0,0,0,5.13-5.59A4.3,4.3,0,0,0,68.94,85.94Z"/><path class="cls-1" d="M126.67,79.66c-4.07-3.63-10-5.1-16.17-4.05C98.37,77.67,88,88.67,87.41,100.13l-4.05,77.42a16.58,16.58,0,0,0,5.37,13.58A18.29,18.29,0,0,0,101,195.51a23.22,23.22,0,0,0,3.88-.33c12.13-2.06,22.49-13.06,23.09-24.53L132,93.23A16.57,16.57,0,0,0,126.67,79.66Zm-5,14.67-4.05,77.41h0c-.33,6.21-6.08,12.2-12.84,13.35a10.07,10.07,0,0,1-8.46-2,8.09,8.09,0,0,1-2.57-6.64L97.79,99c.33-6.21,6.08-12.2,12.84-13.35a12.89,12.89,0,0,1,2.16-.19,9.36,9.36,0,0,1,6.3,2.19A8.09,8.09,0,0,1,121.66,94.33Z"/><path class="cls-1" d="M261.36,58.5c-4.11-3.66-10-5.15-16.3-4.09l-16.79,2.85a6.35,6.35,0,0,0-5.13,5.59l-5.56,106.24a4.3,4.3,0,0,0,1.4,3.47,4.46,4.46,0,0,0,3,1.1,5.18,5.18,0,0,0,.87-.07l16.79-2.85c12.53-2.12,22.83-13.28,23.47-25.39l3.8-72.56C267.2,67,265.23,61.95,261.36,58.5Zm-4.85,15.38-3.8,72.56c-.34,6.55-6.4,13.06-13.22,14.22l-11.25,1.91,5-96,11.91-2a10,10,0,0,1,8.49,2.1A8.89,8.89,0,0,1,256.52,73.88Z"/><path class="cls-2" d="M334.79,40.8a4.6,4.6,0,0,0-3.86-1,6.49,6.49,0,0,0-4.82,4.16l-15,41.5-10.71-36.6a4.4,4.4,0,0,0-5.07-3,6.36,6.36,0,0,0-5.13,5.59l-5.56,106.24a4.3,4.3,0,0,0,1.4,3.47,4.46,4.46,0,0,0,3,1.1,5.23,5.23,0,0,0,.87-.07,6.36,6.36,0,0,0,5.13-5.59L299,81.28l6.26,21.33a4.29,4.29,0,0,0,5.25,3.39,6.2,6.2,0,0,0,5-4.51l8.63-23.85-3.87,74a4.3,4.3,0,0,0,1.4,3.47,4.61,4.61,0,0,0,3.86,1,6.36,6.36,0,0,0,5.13-5.59l5.56-106.24A4.3,4.3,0,0,0,334.79,40.8Z"/><path class="cls-2" d="M395.93,33.77a17.82,17.82,0,0,0-15-4C369.5,31.71,359.29,43.25,358.68,55l-4.77,91a4.3,4.3,0,0,0,1.4,3.47,4.46,4.46,0,0,0,3,1.1,5.19,5.19,0,0,0,.87-.07,6.36,6.36,0,0,0,5.13-5.59l2.53-48.36L389,92.77l-2.5,47.69a4.3,4.3,0,0,0,1.4,3.47,4.59,4.59,0,0,0,3.86,1,6.35,6.35,0,0,0,5.13-5.59l4.77-91A17.78,17.78,0,0,0,395.93,33.77Zm-4.68,15.67-1.74,33.14-22.15,3.75,1.7-32.46c.35-6.77,5.64-12.93,12-14a11.16,11.16,0,0,1,1.87-.16,8.11,8.11,0,0,1,5.5,2C390.43,43.4,391.42,46.16,391.25,49.44Z"/><path class="cls-2" d="M467.51,23a17.37,17.37,0,0,0-14.59-3.81L430.42,23a6.36,6.36,0,0,0-5.13,5.59l-5.56,106.24a4.3,4.3,0,0,0,1.4,3.47,4.47,4.47,0,0,0,3,1.1,5.2,5.2,0,0,0,.87-.07,6.36,6.36,0,0,0,5.13-5.59L433.81,63l17.62-3c11.21-1.9,20.8-12.48,21.38-23.59A16.43,16.43,0,0,0,467.51,23Zm-5.08,14.55h0c-.3,5.76-5.4,11.44-11.12,12.41l-17,2.87,1.08-20.57,17.62-3A8.07,8.07,0,0,1,459.92,31,7.94,7.94,0,0,1,462.43,37.53Z"/><path class="cls-1" d="M178.86,65.43a29.15,29.15,0,0,0-29.12,29.12,28.77,28.77,0,0,0,2.53,11.87l.14.3c.33.73.7,1.44,1.09,2.12s.77,1.31,1.23,2l20.22,32.68a4.58,4.58,0,0,0,3.92,2.18h0a4.57,4.57,0,0,0,3.91-2.19l19.79-32a29.41,29.41,0,0,0,2.08-3.36c.19-.36.37-.73.54-1.09A28.82,28.82,0,0,0,208,94.54,29.15,29.15,0,0,0,178.86,65.43Zm7.44,29.18a7.44,7.44,0,1,1-7.44-7.44A7.44,7.44,0,0,1,186.29,94.61Z"/></svg>